<svg width="1600" height="900" xmlns="http://www.w3.org/2000/svg">
  <!-- Background -->
  <defs>
    <linearGradient id="facilityBg" x1="0%" y1="0%" x2="100%" y2="100%">
      <stop offset="0%" style="stop-color:#E8F5E9;stop-opacity:1" />
      <stop offset="100%" style="stop-color:#C8E6C9;stop-opacity:1" />
    </linearGradient>
  </defs>

  <rect width="1600" height="900" fill="url(#facilityBg)"/>

  <!-- Main building -->
  <rect x="200" y="200" width="1200" height="500" fill="#FFFFFF" rx="15"/>
  <rect x="200" y="200" width="1200" height="80" fill="#2E7D32" rx="15"/>
  <rect x="200" y="260" width="1200" height="20" fill="#1B5E20"/>

  <!-- Building name -->
  <text x="800" y="255" font-family="Arial, sans-serif" font-size="50" fill="#FFFFFF" text-anchor="middle" font-weight="bold">OASIS LEARNING HUB</text>

  <!-- Windows - First floor -->
  <rect x="280" y="320" width="120" height="140" fill="#81D4FA" rx="8"/>
  <rect x="440" y="320" width="120" height="140" fill="#81D4FA" rx="8"/>
  <rect x="600" y="320" width="120" height="140" fill="#81D4FA" rx="8"/>
  <rect x="880" y="320" width="120" height="140" fill="#81D4FA" rx="8"/>
  <rect x="1040" y="320" width="120" height="140" fill="#81D4FA" rx="8"/>
  <rect x="1200" y="320" width="120" height="140" fill="#81D4FA" rx="8"/>

  <!-- Window panes -->
  <line x1="340" y1="320" x2="340" y2="460" stroke="#FFFFFF" stroke-width="4"/>
  <line x1="280" y1="390" x2="400" y2="390" stroke="#FFFFFF" stroke-width="4"/>

  <line x1="500" y1="320" x2="500" y2="460" stroke="#FFFFFF" stroke-width="4"/>
  <line x1="440" y1="390" x2="560" y2="390" stroke="#FFFFFF" stroke-width="4"/>

  <line x1="660" y1="320" x2="660" y2="460" stroke="#FFFFFF" stroke-width="4"/>
  <line x1="600" y1="390" x2="720" y2="390" stroke="#FFFFFF" stroke-width="4"/>

  <line x1="940" y1="320" x2="940" y2="460" stroke="#FFFFFF" stroke-width="4"/>
  <line x1="880" y1="390" x2="1000" y2="390" stroke="#FFFFFF" stroke-width="4"/>

  <line x1="1100" y1="320" x2="1100" y2="460" stroke="#FFFFFF" stroke-width="4"/>
  <line x1="1040" y1="390" x2="1160" y2="390" stroke="#FFFFFF" stroke-width="4"/>

  <line x1="1260" y1="320" x2="1260" y2="460" stroke="#FFFFFF" stroke-width="4"/>
  <line x1="1200" y1="390" x2="1320" y2="390" stroke="#FFFFFF" stroke-width="4"/>

  <!-- Second floor windows -->
  <rect x="280" y="500" width="120" height="140" fill="#81D4FA" rx="8"/>
  <rect x="440" y="500" width="120" height="140" fill="#81D4FA" rx="8"/>
  <rect x="1040" y="500" width="120" height="140" fill="#81D4FA" rx="8"/>
  <rect x="1200" y="500" width="120" height="140" fill="#81D4FA" rx="8"/>

  <line x1="340" y1="500" x2="340" y2="640" stroke="#FFFFFF" stroke-width="4"/>
  <line x1="280" y1="570" x2="400" y2="570" stroke="#FFFFFF" stroke-width="4"/>

  <line x1="500" y1="500" x2="500" y2="640" stroke="#FFFFFF" stroke-width="4"/>
  <line x1="440" y1="570" x2="560" y2="570" stroke="#FFFFFF" stroke-width="4"/>

  <line x1="1100" y1="500" x2="1100" y2="640" stroke="#FFFFFF" stroke-width="4"/>
  <line x1="1040" y1="570" x2="1160" y2="570" stroke="#FFFFFF" stroke-width="4"/>

  <line x1="1260" y1="500" x2="1260" y2="640" stroke="#FFFFFF" stroke-width="4"/>
  <line x1="1200" y1="570" x2="1320" y2="570" stroke="#FFFFFF" stroke-width="4"/>

  <!-- Main entrance -->
  <rect x="700" y="480" width="200" height="220" fill="#1B5E20" rx="10"/>
  <ellipse cx="800" cy="480" rx="110" ry="40" fill="#1B5E20"/>

  <!-- Entrance door -->
  <rect x="730" y="500" width="140" height="200" fill="#8D6E63" rx="8"/>
  <line x1="800" y1="500" x2="800" y2="700" stroke="#6D4C41" stroke-width="4"/>
  <circle cx="780" cy="600" r="8" fill="#FFC107"/>
  <circle cx="820" cy="600" r="8" fill="#FFC107"/>

  <!-- Steps -->
  <rect x="680" y="700" width="240" height="20" fill="#BDBDBD"/>
  <rect x="660" y="720" width="280" height="20" fill="#9E9E9E"/>

  <!-- Flag poles -->
  <rect x="150" y="100" width="8" height="300" fill="#424242"/>
  <rect x="1442" y="100" width="8" height="300" fill="#424242"/>

  <!-- Indian flag on left -->
  <rect x="100" y="100" width="60" height="80" fill="#FF9800"/>
  <rect x="100" y="140" width="60" height="20" fill="#FFFFFF"/>
  <circle cx="130" cy="150" r="8" fill="#1976D2"/>
  <rect x="100" y="160" width="60" height="20" fill="#4CAF50"/>

  <!-- Oasis flag on right -->
  <rect x="1390" y="100" width="60" height="60" fill="#2E7D32"/>
  <text x="1420" y="140" font-family="Arial, sans-serif" font-size="30" fill="#FFFFFF" text-anchor="middle" font-weight="bold">O</text>

  <!-- Play area/ground in front -->
  <rect y="740" width="1600" height="160" fill="#66BB6A"/>

  <!-- Cricket practice nets -->
  <rect x="100" y="750" width="200" height="120" stroke="#424242" stroke-width="3" fill="none"/>
  <line x1="120" y1="750" x2="120" y2="870" stroke="#424242" stroke-width="1"/>
  <line x1="160" y1="750" x2="160" y2="870" stroke="#424242" stroke-width="1"/>
  <line x1="240" y1="750" x2="240" y2="870" stroke="#424242" stroke-width="1"/>
  <line x1="280" y1="750" x2="280" y2="870" stroke="#424242" stroke-width="1"/>

  <!-- Basketball court marking -->
  <circle cx="1400" cy="820" r="60" stroke="#FFFFFF" stroke-width="4" fill="none"/>
  <line x1="1340" y1="760" x2="1460" y2="760" stroke="#FFFFFF" stroke-width="4"/>
  <line x1="1340" y1="880" x2="1460" y2="880" stroke="#FFFFFF" stroke-width="4"/>

  <!-- Trees -->
  <circle cx="50" cy="650" r="50" fill="#388E3C"/>
  <rect x="35" y="650" width="30" height="90" fill="#5D4037"/>

  <circle cx="1550" cy="650" r="50" fill="#388E3C"/>
  <rect x="1535" y="650" width="30" height="90" fill="#5D4037"/>

  <!-- Benches -->
  <rect x="350" y="760" width="100" height="15" fill="#8D6E63" rx="3"/>
  <rect x="360" y="775" width="10" height="30" fill="#5D4037"/>
  <rect x="430" y="775" width="10" height="30" fill="#5D4037"/>

  <!-- Logo/Emblem on building -->
  <circle cx="800" cy="380" r="50" fill="#FFC107"/>
  <text x="800" y="405" font-family="Arial, sans-serif" font-size="50" fill="#2E7D32" text-anchor="middle" font-weight="bold">O</text>

  <!-- Excellence banner -->
  <rect x="600" y="660" width="400" height="60" fill="#FF6F00" rx="10"/>
  <text x="800" y="700" font-family="Arial, sans-serif" font-size="35" fill="#FFFFFF" text-anchor="middle" font-weight="bold">WORLD-CLASS</text>

  <!-- Small clouds -->
  <ellipse cx="300" cy="80" rx="40" ry="25" fill="#FFFFFF" opacity="0.7"/>
  <ellipse cx="340" cy="80" rx="35" ry="22" fill="#FFFFFF" opacity="0.7"/>
  <ellipse cx="320" cy="90" rx="30" ry="20" fill="#FFFFFF" opacity="0.7"/>

  <ellipse cx="1300" cy="100" rx="40" ry="25" fill="#FFFFFF" opacity="0.7"/>
  <ellipse cx="1340" cy="100" rx="35" ry="22" fill="#FFFFFF" opacity="0.7"/>
  <ellipse cx="1320" cy="110" rx="30" ry="20" fill="#FFFFFF" opacity="0.7"/>
</svg>
